<svg width="19" height="14" viewBox="0 0 19 14" fill="none" xmlns="http://www.w3.org/2000/svg">
<path d="M18.5002 7.99931C18.4346 8.04855 18.3599 8.08438 18.2803 8.10475C18.2008 8.12512 18.1181 8.12963 18.0368 8.11802C17.9556 8.10642 17.8774 8.07892 17.8068 8.0371C17.7362 7.99529 17.6745 7.93997 17.6252 7.87431C17.2485 7.36795 16.7582 6.95711 16.1937 6.67487C15.6292 6.39262 15.0063 6.24686 14.3752 6.24931C14.2095 6.24931 14.0505 6.18346 13.9333 6.06625C13.8161 5.94904 13.7502 5.79007 13.7502 5.62431C13.7502 5.45855 13.8161 5.29957 13.9333 5.18236C14.0505 5.06515 14.2095 4.99931 14.3752 4.99931C14.7259 4.99928 15.0696 4.9009 15.3671 4.71535C15.6647 4.52981 15.9043 4.26453 16.0586 3.94965C16.213 3.63477 16.276 3.28291 16.2404 2.93404C16.2048 2.58517 16.0721 2.25327 15.8573 1.97604C15.6426 1.69881 15.3544 1.48737 15.0255 1.36572C14.6966 1.24408 14.3401 1.21711 13.9967 1.28789C13.6532 1.35866 13.3365 1.52434 13.0824 1.76609C12.8284 2.00785 12.6473 2.31601 12.5596 2.65556C12.5391 2.73507 12.5031 2.80976 12.4537 2.87536C12.4043 2.94097 12.3425 2.99621 12.2718 3.03792C12.2011 3.07964 12.1228 3.10701 12.0415 3.11848C11.9602 3.12995 11.8774 3.12529 11.7979 3.10477C11.7184 3.08426 11.6437 3.04828 11.5781 2.99889C11.5125 2.94951 11.4572 2.88768 11.4155 2.81695C11.3738 2.74622 11.3464 2.66796 11.335 2.58665C11.3235 2.50534 11.3281 2.42257 11.3487 2.34306C11.4704 1.87221 11.7003 1.43625 12.0201 1.06989C12.3399 0.703529 12.7408 0.416861 13.1909 0.232703C13.641 0.0485461 14.1279 -0.0280216 14.6128 0.00909424C15.0977 0.0462101 15.5672 0.195987 15.984 0.446502C16.4009 0.697016 16.7535 1.04136 17.0138 1.45213C17.2741 1.8629 17.435 2.32877 17.4836 2.81265C17.5322 3.29653 17.4672 3.78508 17.2938 4.23942C17.1204 4.69376 16.8433 5.10136 16.4846 5.42977C17.3345 5.79774 18.0732 6.38166 18.6276 7.12353C18.6768 7.18935 18.7126 7.26425 18.7328 7.34392C18.7531 7.4236 18.7574 7.50648 18.7456 7.58784C18.7338 7.66919 18.706 7.74741 18.6639 7.81801C18.6218 7.88862 18.5662 7.95023 18.5002 7.99931ZM14.2909 12.8118C14.3345 12.883 14.3634 12.9621 14.376 13.0446C14.3885 13.1271 14.3844 13.2113 14.3639 13.2922C14.3434 13.3731 14.3068 13.4491 14.2565 13.5157C14.2061 13.5822 14.143 13.638 14.0707 13.6798C13.9984 13.7215 13.9185 13.7484 13.8357 13.7587C13.7529 13.7691 13.6688 13.7628 13.5885 13.7401C13.5082 13.7175 13.4332 13.679 13.368 13.6269C13.3028 13.5748 13.2487 13.5102 13.2088 13.4368C12.8151 12.7703 12.2544 12.218 11.582 11.8343C10.9097 11.4506 10.149 11.2488 9.37484 11.2488C8.60073 11.2488 7.83999 11.4506 7.16765 11.8343C6.49532 12.218 5.93462 12.7703 5.54086 13.4368C5.50178 13.5115 5.44801 13.5775 5.38276 13.6309C5.31751 13.6843 5.24215 13.7239 5.16119 13.7474C5.08024 13.7708 4.99537 13.7777 4.91169 13.7675C4.82801 13.7574 4.74725 13.7304 4.67428 13.6882C4.6013 13.646 4.53761 13.5895 4.48703 13.5221C4.43646 13.4546 4.40005 13.3777 4.38 13.2958C4.35995 13.2139 4.35666 13.1288 4.37034 13.0457C4.38402 12.9625 4.41438 12.8829 4.45961 12.8118C5.06554 11.7707 5.98945 10.9514 7.09554 10.4743C6.47314 9.99778 6.01572 9.33818 5.78758 8.58823C5.55943 7.83829 5.57203 7.0357 5.8236 6.29329C6.07518 5.55088 6.55308 4.90597 7.19013 4.44921C7.82718 3.99245 8.59135 3.7468 9.37523 3.7468C10.1591 3.7468 10.9233 3.99245 11.5603 4.44921C12.1974 4.90597 12.6753 5.55088 12.9269 6.29329C13.1784 7.0357 13.191 7.83829 12.9629 8.58823C12.7347 9.33818 12.2773 9.99778 11.6549 10.4743C12.761 10.9514 13.6849 11.7707 14.2909 12.8118ZM9.37523 9.99931C9.86969 9.99931 10.353 9.85268 10.7642 9.57798C11.1753 9.30328 11.4957 8.91283 11.6849 8.45601C11.8742 7.9992 11.9237 7.49653 11.8272 7.01158C11.7307 6.52663 11.4926 6.08117 11.143 5.73154C10.7934 5.38191 10.3479 5.14381 9.86296 5.04734C9.378 4.95088 8.87534 5.00039 8.41852 5.18961C7.96171 5.37883 7.57126 5.69926 7.29656 6.11038C7.02185 6.5215 6.87523 7.00485 6.87523 7.49931C6.87523 8.16234 7.13862 8.79823 7.60746 9.26707C8.07631 9.73591 8.71219 9.99931 9.37523 9.99931ZM5.00023 5.62431C5.00023 5.45855 4.93438 5.29957 4.81717 5.18236C4.69996 5.06515 4.54099 4.99931 4.37523 4.99931C4.02455 4.99928 3.68091 4.9009 3.38333 4.71535C3.08576 4.52981 2.84618 4.26453 2.69182 3.94965C2.53745 3.63477 2.47449 3.28291 2.51007 2.93404C2.54566 2.58517 2.67837 2.25327 2.89313 1.97604C3.10789 1.69881 3.39609 1.48737 3.725 1.36572C4.0539 1.24408 4.41033 1.21711 4.7538 1.28789C5.09726 1.35866 5.414 1.52434 5.66802 1.76609C5.92205 2.00785 6.10319 2.31601 6.19086 2.65556C6.2323 2.81613 6.33583 2.95368 6.47868 3.03792C6.62153 3.12217 6.792 3.14621 6.95258 3.10477C7.11316 3.06333 7.2507 2.9598 7.33494 2.81695C7.41919 2.6741 7.44323 2.50363 7.40179 2.34306C7.28011 1.87221 7.05021 1.43625 6.7304 1.06989C6.41058 0.703529 6.00967 0.416861 5.55957 0.232703C5.10947 0.0485461 4.6226 -0.0280216 4.1377 0.00909424C3.6528 0.0462101 3.18325 0.195987 2.76642 0.446502C2.34959 0.697016 1.99699 1.04136 1.73665 1.45213C1.47632 1.8629 1.31545 2.32877 1.26685 2.81265C1.21824 3.29653 1.28324 3.78508 1.45667 4.23942C1.6301 4.69376 1.90718 5.10136 2.26586 5.42977C1.41686 5.79809 0.678914 6.38198 0.125231 7.12353C0.0256716 7.25613 -0.0171322 7.42286 0.00623663 7.58703C0.0296054 7.75119 0.117232 7.89936 0.249841 7.99892C0.382449 8.09848 0.549176 8.14128 0.713344 8.11791C0.877511 8.09454 1.02567 8.00691 1.12523 7.87431C1.50194 7.36795 1.99227 6.95711 2.55676 6.67487C3.12125 6.39262 3.74412 6.24686 4.37523 6.24931C4.54099 6.24931 4.69996 6.18346 4.81717 6.06625C4.93438 5.94904 5.00023 5.79007 5.00023 5.62431Z" fill="black"/>
</svg>
